# xmcd
#
# Track frame offsets:
#  150
#  11016
#  27315
#  43599
#  58542
#  73792
#  90160
#  106526
#  118585
#  131856
#
# Disc length: 1924 seconds
#
# Revision: 0
# Processed by: cddbd v1.5.2PL0 Copyright (c) Steve Scherf et al.
# Submitted via: AltoMP3_Maker 3.0
#
DISCID=7b07820a
DTITLE=Jayne Denham - Renegade
DYEAR=1900
DGENRE=
TTITLE0=Renegade
TTITLE1=Addicted to The Diesel
TTITLE2=Beyond These City Lights
TTITLE3=Cowgirls MIA
TTITLE4=Grew Up Around Trucks
TTITLE5=Trick It Up
TTITLE6=Shelter
TTITLE7=Jam The Jam
TTITLE8=Outlaw
TTITLE9=This is Rodeo
EXTD=
EXTT0=
EXTT1=
EXTT2=
EXTT3=
EXTT4=
EXTT5=
EXTT6=
EXTT7=
EXTT8=
EXTT9=
PLAYORDER=
